<?xml version="1.0" standalone="no"?>
<!DOCTYPE svg PUBLIC "-//W3C//DTD SVG 20010904//EN"
 "http://www.w3.org/TR/2001/REC-SVG-20010904/DTD/svg10.dtd">
<svg version="1.0" xmlns="http://www.w3.org/2000/svg"
 width="400.000000pt" height="400.000000pt" viewBox="0 0 400.000000 400.000000"
 preserveAspectRatio="xMidYMid meet">
<metadata>
Created by potrace 1.14, written by Peter Selinger 2001-2017
</metadata>
<g transform="translate(0.000000,400.000000) scale(0.100000,-0.100000)"
fill="#000000" stroke="none">
<path d="M2540 3219 c-25 -5 -77 -25 -117 -44 -114 -56 -202 -167 -238 -301
-21 -78 -22 -259 -1 -337 61 -225 243 -358 473 -345 114 7 199 44 282 123 105
100 151 220 151 395 0 219 -90 385 -253 465 -105 51 -192 64 -297 44z m199
-98 c106 -76 161 -273 140 -501 -24 -259 -136 -389 -301 -350 -120 29 -191
165 -205 388 -13 226 59 428 172 478 48 22 153 14 194 -15z"/>
<path d="M822 3148 c3 -31 6 -33 43 -36 22 -1 50 -5 63 -7 l22 -5 0 -414 0
-414 -65 -7 -65 -7 0 -34 0 -34 380 0 380 0 0 48 c0 26 3 91 7 145 l6 97 -51
0 -51 0 -11 -57 c-7 -32 -16 -79 -22 -105 l-10 -48 -154 0 -154 0 0 415 0 414
33 5 c17 3 46 7 62 8 26 3 30 7 33 36 l3 32 -226 0 -226 0 3 -32z"/>
<path d="M582 1748 c3 -32 5 -33 55 -39 29 -4 60 -9 68 -13 13 -5 15 -59 15
-410 l0 -406 -22 -4 c-13 -3 -44 -8 -70 -11 -47 -6 -48 -7 -48 -41 l0 -34 170
0 170 0 0 35 c0 34 -1 34 -49 41 -27 3 -53 9 -58 13 -6 3 -12 146 -16 359 -3
195 -4 352 -2 350 3 -2 74 -182 159 -399 l154 -394 47 0 47 0 143 385 c78 212
144 392 148 400 3 8 6 -148 6 -346 l1 -361 -60 -7 -60 -7 0 -34 0 -35 220 0
220 0 0 34 0 34 -65 7 -65 7 0 414 0 414 23 5 c12 2 38 6 57 7 32 3 35 6 38
36 l3 32 -164 0 -164 0 -128 -347 c-70 -192 -133 -358 -140 -371 -10 -21 -26
16 -156 347 l-144 371 -168 0 -168 0 3 -32z"/>
<path d="M2222 1748 c3 -31 6 -33 43 -36 22 -1 50 -5 63 -7 l22 -5 0 -414 0
-414 -65 -7 -65 -7 0 -34 0 -34 225 0 225 0 0 34 0 34 -65 7 -65 7 0 189 0
189 63 0 c74 0 124 -22 149 -66 10 -17 32 -94 48 -170 16 -77 36 -153 44 -170
21 -46 72 -66 170 -66 110 -1 126 5 126 46 0 32 -1 33 -56 42 l-57 9 -31 130
c-46 188 -76 232 -182 269 l-39 13 40 7 c21 4 59 18 84 31 88 44 131 114 131
207 -1 69 -27 125 -80 171 -78 67 -100 70 -433 75 l-298 4 3 -34z m538 -64
c135 -78 107 -304 -42 -349 -29 -8 -80 -15 -115 -15 l-63 0 0 196 0 196 93 -4
c70 -3 101 -9 127 -24z"/>
</g>
</svg>
